{
  "asset": {
    "generator": "Khronos glTF Blender I/O v1.4.40",
    "version": "2.0"
  },
  "scene": 0,
  "scenes": [
    {
      "name": "Scene",
      "nodes": [
        0,
        1,
        3,
        4,
        5,
        6
      ]
    }
  ],
  "nodes": [
    {
      "mesh": 0,
      "name": "Plane",
      "rotation": [
        0.7071068286895752,
        0,
        0,
        0.7071067094802856
      ]
    },
    {
      "mesh": 1,
      "name": "Cone",
      "rotation": [
        0.7071068286895752,
        0,
        0,
        0.7071067094802856
      ],
      "translation": [
        2.5999999046325684,
        1,
        3
      ]
    },
    {
      "mesh": 2,
      "name": "Sphere",
      "rotation": [
        0.7071068286895752,
        0,
        0,
        0.7071067094802856
      ]
    },
    {
      "children": [
        2
      ],
      "name": "Empty",
      "translation": [
        -1.7999999523162842,
        0,
        -6
      ]
    },
    {
      "mesh": 3,
      "name": "Cube",
      "rotation": [
        0.10284747928380966,
        0.32619041204452515,
        0.8962007761001587,
        0.282571017742157
      ],
      "translation": [
        -3.5,
        2.5,
        4
      ]
    },
    {
      "name": "Light",
      "rotation": [
        0.16907575726509094,
        0.7558803558349609,
        -0.27217137813568115,
        0.570947527885437
      ],
      "translation": [
        4.076245307922363,
        5.903861999511719,
        -1.0054539442062378
      ]
    },
    {
      "name": "Camera",
      "rotation": [
        0.483536034822464,
        0.33687159419059753,
        -0.20870360732078552,
        0.7804827094078064
      ],
      "translation": [
        7.358891487121582,
        4.958309173583984,
        6.925790786743164
      ]
    }
  ],
  "materials": [
    {
      "doubleSided": true,
      "name": "PlaneMaterial",
      "pbrMetallicRoughness": {
        "baseColorTexture": {
          "index": 0,
          "texCoord": 0
        },
        "metallicFactor": 0,
        "roughnessFactor": 0.5
      }
    },
    {
      "doubleSided": true,
      "name": "ConeMat",
      "pbrMetallicRoughness": {
        "baseColorFactor": [
          0.00912733469158411,
          0.8000000715255737,
          0,
          1
        ],
        "metallicFactor": 0,
        "roughnessFactor": 0.5
      }
    },
    {
      "doubleSided": true,
      "name": "SphereMat",
      "pbrMetallicRoughness": {
        "baseColorFactor": [
          0.8000000715255737,
          0,
          0.0033547875937074423,
          1
        ],
        "metallicFactor": 0,
        "roughnessFactor": 0.4000000059604645
      }
    },
    {
      "doubleSided": true,
      "name": "CubeMat",
      "pbrMetallicRoughness": {
        "baseColorFactor": [
          0,
          0.004720768891274929,
          0.8000000715255737,
          1
        ],
        "metallicFactor": 0,
        "roughnessFactor": 0.5
      }
    }
  ],
  "meshes": [
    {
      "name": "Plane",
      "primitives": [
        {
          "attributes": {
            "POSITION": 0,
            "NORMAL": 1,
            "TEXCOORD_0": 2
          },
          "indices": 3,
          "material": 0
        }
      ]
    },
    {
      "name": "Cone",
      "primitives": [
        {
          "attributes": {
            "POSITION": 4,
            "NORMAL": 5,
            "TEXCOORD_0": 6
          },
          "indices": 7,
          "material": 1
        }
      ]
    },
    {
      "name": "Sphere",
      "primitives": [
        {
          "attributes": {
            "POSITION": 8,
            "NORMAL": 9,
            "TEXCOORD_0": 10
          },
          "indices": 11,
          "material": 2
        }
      ]
    },
    {
      "name": "Cube.001",
      "primitives": [
        {
          "attributes": {
            "POSITION": 12,
            "NORMAL": 13,
            "TEXCOORD_0": 14
          },
          "indices": 15,
          "material": 3
        }
      ]
    }
  ],
  "textures": [
    {
      "sampler": 0,
      "source": 0
    }
  ],
  "images": [
    {
      "name": "uv",
      "uri": "test_img0.png"
    }
  ],
  "accessors": [
    {
      "bufferView": 0,
      "componentType": 5126,
      "count": 4,
      "max": [
        10.912615776062012,
        10.912615776062012,
        0
      ],
      "min": [
        -10.912615776062012,
        -10.912615776062012,
        0
      ],
      "type": "VEC3"
    },
    {
      "bufferView": 1,
      "componentType": 5126,
      "count": 4,
      "type": "VEC3"
    },
    {
      "bufferView": 2,
      "componentType": 5126,
      "count": 4,
      "type": "VEC2"
    },
    {
      "bufferView": 3,
      "componentType": 5123,
      "count": 6,
      "type": "SCALAR"
    },
    {
      "bufferView": 4,
      "componentType": 5126,
      "count": 169,
      "max": [
        1,
        1.000000238418579,
        0.46120545268058777
      ],
      "min": [
        -1,
        -0.9999998807907104,
        -1.5387945175170898
      ],
      "type": "VEC3"
    },
    {
      "bufferView": 5,
      "componentType": 5126,
      "count": 169,
      "type": "VEC3"
    },
    {
      "bufferView": 6,
      "componentType": 5126,
      "count": 169,
      "type": "VEC2"
    },
    {
      "bufferView": 7,
      "componentType": 5123,
      "count": 186,
      "type": "SCALAR"
    },
    {
      "bufferView": 8,
      "componentType": 5126,
      "count": 2848,
      "max": [
        1,
        1,
        -0.05345999822020531
      ],
      "min": [
        -1,
        -1,
        -2.0534610748291016
      ],
      "type": "VEC3"
    },
    {
      "bufferView": 9,
      "componentType": 5126,
      "count": 2848,
      "type": "VEC3"
    },
    {
      "bufferView": 10,
      "componentType": 5126,
      "count": 2848,
      "type": "VEC2"
    },
    {
      "bufferView": 11,
      "componentType": 5123,
      "count": 2880,
      "type": "SCALAR"
    },
    {
      "bufferView": 12,
      "componentType": 5126,
      "count": 24,
      "max": [
        1,
        1,
        1
      ],
      "min": [
        -1,
        -1,
        -1
      ],
      "type": "VEC3"
    },
    {
      "bufferView": 13,
      "componentType": 5126,
      "count": 24,
      "type": "VEC3"
    },
    {
      "bufferView": 14,
      "componentType": 5126,
      "count": 24,
      "type": "VEC2"
    },
    {
      "bufferView": 15,
      "componentType": 5123,
      "count": 36,
      "type": "SCALAR"
    }
  ],
  "bufferViews": [
    {
      "buffer": 0,
      "byteLength": 48,
      "byteOffset": 0
    },
    {
      "buffer": 0,
      "byteLength": 48,
      "byteOffset": 48
    },
    {
      "buffer": 0,
      "byteLength": 32,
      "byteOffset": 96
    },
    {
      "buffer": 0,
      "byteLength": 12,
      "byteOffset": 128
    },
    {
      "buffer": 0,
      "byteLength": 2028,
      "byteOffset": 140
    },
    {
      "buffer": 0,
      "byteLength": 2028,
      "byteOffset": 2168
    },
    {
      "buffer": 0,
      "byteLength": 1352,
      "byteOffset": 4196
    },
    {
      "buffer": 0,
      "byteLength": 372,
      "byteOffset": 5548
    },
    {
      "buffer": 0,
      "byteLength": 34176,
      "byteOffset": 5920
    },
    {
      "buffer": 0,
      "byteLength": 34176,
      "byteOffset": 40096
    },
    {
      "buffer": 0,
      "byteLength": 22784,
      "byteOffset": 74272
    },
    {
      "buffer": 0,
      "byteLength": 5760,
      "byteOffset": 97056
    },
    {
      "buffer": 0,
      "byteLength": 288,
      "byteOffset": 102816
    },
    {
      "buffer": 0,
      "byteLength": 288,
      "byteOffset": 103104
    },
    {
      "buffer": 0,
      "byteLength": 192,
      "byteOffset": 103392
    },
    {
      "buffer": 0,
      "byteLength": 72,
      "byteOffset": 103584
    }
  ],
  "samplers": [
    {
      "magFilter": 9729,
      "minFilter": 9986
    }
  ],
  "buffers": [
    {
      "uri": "test_data.bin",
      "byteLength": 103656
    }
  ]
}